<svg version="1.2" xmlns="http://www.w3.org/2000/svg" viewBox="0 0 350 356" width="100%" height="500">
	<title>svg-icon-1-svg</title>
	<defs>
		<linearGradient id="g1" x2="1" gradientUnits="userSpaceOnUse" gradientTransform="matrix(558.684,0,0,505.932,-69.033,197.118)">
			<stop offset="0" stop-color="#f0ecf4"/>
			<stop offset=".128" stop-color="#ede8f3"/>
			<stop offset=".264" stop-color="#e5dbf0"/>
			<stop offset=".404" stop-color="#d8c6ec"/>
			<stop offset=".546" stop-color="#c6a8e5"/>
			<stop offset=".69" stop-color="#ae82dd"/>
			<stop offset=".836" stop-color="#9153d2"/>
			<stop offset=".981" stop-color="#6f1cc6"/>
			<stop offset=".996" stop-color="#6b16c5"/>
		</linearGradient>
		<linearGradient id="g2" x2="1" gradientUnits="userSpaceOnUse" gradientTransform="matrix(0,248.797,-129.495,0,183.29,54.079)">
			<stop offset=".21" stop-color="#f0ecf4"/>
			<stop offset=".331" stop-color="#ede8f3"/>
			<stop offset=".458" stop-color="#e5dbf0"/>
			<stop offset=".59" stop-color="#d8c6eb"/>
			<stop offset=".724" stop-color="#c5a8e5"/>
			<stop offset=".859" stop-color="#ad82dc"/>
			<stop offset=".995" stop-color="#9054d2"/>
			<stop offset=".996" stop-color="#9053d2"/>
		</linearGradient>
	</defs>
	<style>
		.s0 { fill: url(#g1) } 
		.s1 { fill: #9999ef } 
		.s2 { fill: none;stroke: #ffffff;stroke-linecap: round;stroke-linejoin: round;stroke-width: 1.1 } 
		.s3 { fill: none;stroke: #ffffff;stroke-linecap: round;stroke-linejoin: round;stroke-width: 1.6 } 
		.s4 { opacity: .3;fill: #9999ef } 
		.s5 { opacity: .2;fill: #9999ef } 
		.s6 { fill: #6786f4 } 
		.s7 { fill: #ddd6ff } 
		.s8 { fill: #c9c2ff } 
		.s9 { fill: #f2f0ff } 
		.s10 { fill: #cde0fe } 
		.s11 { fill: #ffffff } 
		.s12 { fill: #d6d4ff } 
		.s13 { fill: none;stroke: #ffffff;stroke-linecap: round;stroke-linejoin: round;stroke-width: .7 } 
		.s14 { fill: #bfb8f4 } 
		.s15 { fill: #7324c8 } 
		.s16 { fill: url(#g2) } 
	</style>
	<g id="Layer">
		<path id="Layer" class="s0" d="m347.1 197.2c0-18.6-8.4-36-23.1-51-10.2-10.4-18.7-22.4-25.2-35.5-20.7-41.8-56.2-69.4-96.4-69.4-28.6 0-54.7 13.9-74.9 37-13.3 15.2-30.3 27-49 34.5-45.6 18.4-75.6 49.3-75.6 84.4 0 35.1 30 66 75.6 84.3 18.8 7.5 35.7 19.3 49 34.5 20.2 23.1 46.4 37 74.9 37 40.2 0 75.6-27.5 96.4-69.4 6.5-13.1 15-25 25.2-35.5 14.7-15 23.1-32.4 23.1-50.9z"/>
	</g>
	<g id="Layer">
		<g id="Layer">
			<g id="Layer">
				<path id="Layer" class="s1" d="m111.5 62.3c-0.8 1.9-3 2.9-4.9 2.1-2-0.8-2.9-3-2.1-4.9 0.7-2 3-2.9 4.9-2.2 2 0.8 2.9 3 2.1 5z"/>
				<path id="Layer" class="s2" d="m106.4 60.3l0.8 2 2.9-1.8"/>
			</g>
			<g id="Layer">
				<path id="Layer" class="s1" d="m50.2 155.7c-2 0.7-4.2-0.4-4.8-2.4-0.7-2 0.4-4.1 2.4-4.8 2-0.7 4.1 0.4 4.8 2.4 0.7 2-0.4 4.2-2.4 4.8z"/>
				<path id="Layer" class="s2" d="m47.5 152.8l1.9 1 1-3.2"/>
			</g>
			<g id="Layer">
				<path id="Layer" class="s1" d="m85.8 192.4c-0.7 2-2.8 3-4.8 2.4-2-0.7-3.1-2.9-2.4-4.9 0.7-2 2.9-3 4.8-2.3 2 0.7 3.1 2.8 2.4 4.8z"/>
				<path id="Layer" class="s2" d="m80.5 190.8l1 1.8 2.7-1.9"/>
			</g>
			<g id="Layer">
				<path id="Layer" class="s1" d="m281.6 126.6c-3 1.3-6.4-0.1-7.6-3-1.3-3 0.1-6.4 3-7.6 3-1.3 6.4 0.1 7.6 3 1.3 2.9-0.1 6.4-3 7.6z"/>
				<path id="Layer" class="s3" d="m277 122.5l3 1.2 1.2-5"/>
			</g>
			<path id="Layer" class="s1" d="m54.5 128.6c-0.8 0-1.4-0.6-1.4-1.4 0-0.8 0.6-1.4 1.4-1.4 0.8 0 1.4 0.6 1.4 1.4 0 0.8-0.6 1.4-1.4 1.4z"/>
			<path id="Layer" class="s1" d="m307 132.4c-0.8 0-1.4-0.6-1.4-1.4 0-0.8 0.6-1.4 1.4-1.4 0.8 0 1.4 0.6 1.4 1.4 0 0.8-0.6 1.4-1.4 1.4z"/>
			<path id="Layer" class="s1" d="m204.2 97.2c-0.8 0-1.4-0.6-1.4-1.4 0-0.8 0.6-1.4 1.4-1.4 0.8 0 1.4 0.6 1.4 1.4 0 0.8-0.6 1.4-1.4 1.4z"/>
			<path id="Layer" class="s1" d="m71.7 117.1c-1.3 0-2.3-1-2.3-2.3 0-1.3 1-2.3 2.3-2.3 1.3 0 2.3 1 2.3 2.3 0 1.3-1 2.3-2.3 2.3z"/>
			<path id="Layer" class="s1" d="m322.8 187c-1.3 0-2.3-1-2.3-2.3 0-1.3 1-2.3 2.3-2.3 1.3 0 2.3 1 2.3 2.3 0 1.3-1 2.3-2.3 2.3z"/>
			<path id="Layer" class="s1" d="m43.2 117.1c-1.3 0-2.3-1-2.3-2.3 0-1.3 1-2.3 2.3-2.3 1.3 0 2.3 1 2.3 2.3 0 1.3-1 2.3-2.3 2.3z"/>
			<path id="Layer" class="s1" d="m31.5 216.7c-1.3 0-2.3-1-2.3-2.3 0-1.3 1-2.3 2.3-2.3 1.3 0 2.3 1 2.3 2.3 0 1.3-1 2.3-2.3 2.3z"/>
			<path id="Layer" class="s4" d="m59.7 184.6c-1.3 0-2.3-1-2.3-2.3 0-1.3 1-2.3 2.3-2.3 1.3 0 2.3 1 2.3 2.3 0 1.3-1 2.3-2.3 2.3z"/>
			<path id="Layer" class="s4" d="m302.5 165c-1.9 0-3.5-1.6-3.5-3.5 0-1.9 1.6-3.5 3.5-3.5 1.9 0 3.5 1.6 3.5 3.5 0 1.9-1.6 3.5-3.5 3.5z"/>
			<path id="Layer" class="s4" d="m302.5 102.8c-1.9 0-3.5-1.6-3.5-3.5 0-1.9 1.6-3.5 3.5-3.5 1.9 0 3.5 1.6 3.5 3.5 0 1.9-1.6 3.5-3.5 3.5z"/>
			<path id="Layer" class="s4" d="m25.7 251.8c-1.9 0-3.5-1.6-3.5-3.5 0-1.9 1.6-3.5 3.5-3.5 1.9 0 3.5 1.6 3.5 3.5 0 1.9-1.6 3.5-3.5 3.5z"/>
			<path id="Layer" class="s4" d="m241.6 87.6c-1.3 0-2.3-1-2.3-2.3 0-1.3 1-2.3 2.3-2.3 1.3 0 2.3 1 2.3 2.3 0 1.3-1 2.3-2.3 2.3z"/>
			<path id="Layer" class="s5" d="m331.8 237.8c-1.3 0-2.3-1-2.3-2.3 0-1.3 1-2.3 2.3-2.3 1.3 0 2.3 1 2.3 2.3 0 1.3-1 2.3-2.3 2.3z"/>
			<g id="Layer">
				<g id="Layer">
					<g id="Layer">
						<path id="Layer" class="s1" d="m23.6 149.6c-0.2 0-0.4-0.2-0.4-0.4v-3.2c0-0.2 0.2-0.4 0.4-0.4 0.2 0 0.4 0.2 0.4 0.4v3.2c0 0.2-0.2 0.4-0.4 0.4z"/>
					</g>
					<g id="Layer">
						<path id="Layer" class="s1" d="m25.1 148h-3.2c-0.2 0-0.4-0.2-0.4-0.4 0-0.2 0.2-0.4 0.4-0.4h3.2c0.2 0 0.4 0.2 0.4 0.4 0 0.2-0.2 0.4-0.4 0.4z"/>
					</g>
				</g>
			</g>
			<g id="Layer">
				<g id="Layer">
					<g id="Layer">
						<path id="Layer" class="s6" d="m45.2 180.4c-0.2 0-0.4-0.2-0.4-0.4v-3.2c0-0.2 0.2-0.4 0.4-0.4 0.2 0 0.4 0.2 0.4 0.4v3.2c0 0.1-0.2 0.4-0.4 0.4z"/>
					</g>
					<g id="Layer">
						<path id="Layer" class="s6" d="m46.8 178.7h-3.2c-0.2 0-0.4-0.2-0.4-0.4 0-0.2 0.2-0.4 0.4-0.4h3.2c0.2 0 0.4 0.2 0.4 0.4 0 0.3-0.2 0.4-0.4 0.4z"/>
					</g>
				</g>
			</g>
			<g id="Layer">
				<g id="Layer">
					<g id="Layer">
						<path id="Layer" class="s1" d="m318.3 223c-0.2 0-0.4-0.2-0.4-0.4v-3.2c0-0.2 0.2-0.4 0.4-0.4 0.2 0 0.4 0.2 0.4 0.4v3.2c0 0.2-0.2 0.4-0.4 0.4z"/>
					</g>
					<g id="Layer">
						<path id="Layer" class="s1" d="m319.8 221.5h-3.2c-0.2 0-0.4-0.2-0.4-0.4 0-0.2 0.2-0.4 0.4-0.4h3.2c0.2 0 0.4 0.2 0.4 0.4 0 0.2-0.2 0.4-0.4 0.4z"/>
					</g>
				</g>
			</g>
			<g id="Layer">
				<g id="Layer">
					<g id="Layer">
						<path id="Layer" class="s1" d="m277.2 160c-0.2 0-0.4-0.2-0.4-0.4v-3.2c0-0.2 0.2-0.4 0.4-0.4 0.2 0 0.4 0.2 0.4 0.4v3.2c0 0.2-0.1 0.4-0.4 0.4z"/>
					</g>
					<g id="Layer">
						<path id="Layer" class="s1" d="m278.8 158.5h-3.2c-0.2 0-0.4-0.2-0.4-0.4 0-0.2 0.2-0.4 0.4-0.4h3.2c0.2 0 0.4 0.2 0.4 0.4 0 0.2-0.2 0.4-0.4 0.4z"/>
					</g>
				</g>
			</g>
		</g>
		<g id="Layer">
			<g id="Layer" style="opacity: .7">
				<g id="Layer">
					<path id="Layer" class="s7" d="m44.2 77.7l-1.2 0.7c-0.2 0.1-0.6 0.1-0.7-0.1-0.1-0.2-0.1-0.6 0.1-0.7l1.2-0.8c0.3-0.1 0.6-0.1 0.7 0.1 0.2 0.3 0.1 0.7-0.1 0.8z"/>
					<path id="Layer" class="s7" d="m41.3 79.7c-0.7 0.6-1.5 1.2-2.1 1.8-0.2 0.2-0.5 0.2-0.7 0-0.2-0.2-0.2-0.5 0-0.7 0.7-0.6 1.4-1.3 2.2-1.9 0.2-0.2 0.6-0.1 0.7 0.1 0.1 0.2 0.1 0.5-0.1 0.7z"/>
					<path id="Layer" class="s7" d="m37.6 83c-0.6 0.7-1.3 1.4-1.8 2.1-0.1 0.2-0.5 0.2-0.7 0.1-0.2-0.1-0.2-0.5-0.1-0.7 0.6-0.8 1.3-1.5 1.9-2.2 0.2-0.2 0.5-0.2 0.7 0 0.2 0.1 0.2 0.5 0 0.7z"/>
					<path id="Layer" class="s7" d="m34.5 86.8c-0.6 0.8-1.1 1.6-1.6 2.3-0.1 0.2-0.4 0.3-0.6 0.1-0.2-0.1-0.3-0.4-0.1-0.6 0.5-0.8 1-1.6 1.6-2.4 0.1-0.2 0.5-0.3 0.7-0.1 0.1 0.1 0.1 0.5 0 0.7z"/>
					<path id="Layer" class="s7" d="m31.9 91c-0.4 0.8-0.8 1.7-1.2 2.5-0.1 0.2-0.4 0.4-0.6 0.3-0.2-0.1-0.4-0.4-0.3-0.6q0.6-1.3 1.2-2.7c0.1-0.2 0.4-0.4 0.6-0.2 0.2 0.2 0.4 0.5 0.3 0.7z"/>
					<path id="Layer" class="s7" d="m30 95.6c-0.3 0.9-0.5 1.8-0.6 2.8-0.1 0.2-0.3 0.4-0.5 0.4-0.2-0.1-0.4-0.3-0.4-0.5 0.1-1 0.4-1.9 0.6-2.8 0.1-0.2 0.4-0.4 0.6-0.3 0.3-0.1 0.4 0.1 0.3 0.4z"/>
					<path id="Layer" class="s7" d="m29.2 100.4c0 0.9 0 1.8 0.1 2.8 0.1 0.2-0.1 0.4-0.4 0.5-0.2 0.1-0.4-0.1-0.5-0.4-0.1-1-0.2-2-0.2-3 0-0.2 0.2-0.4 0.4-0.4 0.5 0 0.6 0.2 0.6 0.5z"/>
					<path id="Layer" class="s7" d="m29.8 105.1c0.3 0.8 0.7 1.7 1.1 2.5 0.1 0.2 0.1 0.4-0.1 0.6-0.2 0.1-0.4 0.1-0.6-0.1-0.5-0.8-0.9-1.8-1.3-2.7-0.1-0.2 0.1-0.5 0.3-0.6 0.3 0 0.6 0.1 0.6 0.3z"/>
					<path id="Layer" class="s7" d="m32.2 109.3c0.6 0.7 1.3 1.3 2 1.9 0.1 0.1 0.2 0.4 0.1 0.6-0.1 0.1-0.4 0.2-0.6 0.1-0.8-0.6-1.5-1.3-2.1-2-0.1-0.1-0.1-0.4 0.1-0.6 0.1-0.2 0.4-0.1 0.5 0z"/>
					<path id="Layer" class="s7" d="m36 112.4c0.8 0.5 1.6 0.9 2.5 1.3 0.2 0.1 0.3 0.3 0.2 0.5-0.1 0.2-0.3 0.3-0.5 0.2-0.9-0.4-1.8-0.8-2.6-1.3-0.2-0.1-0.3-0.4-0.1-0.6 0-0.1 0.3-0.2 0.5-0.1z"/>
					<path id="Layer" class="s7" d="m40.4 114.5c0.9 0.3 1.8 0.5 2.8 0.7 0.2 0.1 0.4 0.2 0.3 0.4-0.1 0.2-0.2 0.4-0.4 0.3-1-0.1-1.9-0.4-2.8-0.7-0.2-0.1-0.3-0.3-0.3-0.5 0-0.2 0.2-0.2 0.4-0.2z"/>
					<path id="Layer" class="s7" d="m45.2 115.4c0.9 0.1 1.9 0.1 2.8 0 0.2 0 0.4 0.1 0.4 0.4 0 0.3-0.1 0.4-0.4 0.4-1 0.1-1.9 0.1-2.9 0-0.2 0-0.4-0.2-0.4-0.4 0.2-0.2 0.3-0.4 0.5-0.4z"/>
					<path id="Layer" class="s7" d="m50.1 115.2c0.9-0.1 1.8-0.4 2.8-0.7 0.1-0.1 0.4 0.1 0.4 0.2 0.1 0.1-0.1 0.4-0.2 0.4-0.9 0.3-1.8 0.6-2.8 0.7-0.2 0-0.4-0.1-0.4-0.3-0.1-0.1 0-0.3 0.2-0.3z"/>
					<path id="Layer" class="s7" d="m54.8 113.8c0.8-0.4 1.7-0.8 2.4-1.4 0.1-0.1 0.4-0.1 0.4 0.1 0.1 0.1 0.1 0.4-0.1 0.4-0.8 0.6-1.6 1.1-2.5 1.5-0.1 0.1-0.4 0-0.4-0.1 0-0.3 0.1-0.5 0.2-0.5z"/>
					<path id="Layer" class="s7" d="m58.8 111c0.6-0.7 1.1-1.4 1.5-2.3 0.1-0.1 0.2-0.2 0.4-0.2 0.1 0.1 0.2 0.2 0.2 0.4-0.4 0.9-0.9 1.8-1.6 2.5-0.1 0.1-0.3 0.1-0.4 0-0.2 0-0.2-0.3-0.1-0.4z"/>
					<path id="Layer" class="s7" d="m60.7 106.7c0-0.9-0.1-1.8-0.4-2.7-0.1-0.1 0-0.3 0.2-0.4 0.1-0.1 0.3 0 0.4 0.2 0.4 0.9 0.5 1.9 0.5 2.9 0 0.1-0.1 0.3-0.3 0.3-0.3 0.1-0.4-0.1-0.4-0.3z"/>
					<path id="Layer" class="s7" d="m59.3 102.2c-0.6-0.7-1.3-1.3-2-1.8-0.1-0.1-0.2-0.2-0.1-0.4 0.1-0.1 0.2-0.2 0.4-0.1 0.9 0.4 1.7 1.1 2.3 1.9 0.1 0.1 0.1 0.3-0.1 0.4-0.3 0.1-0.4 0.1-0.5 0z"/>
					<path id="Layer" class="s7" d="m55.3 99.7c-0.9-0.2-1.8-0.2-2.8-0.2-0.1 0-0.3-0.1-0.3-0.2 0-0.1 0.1-0.3 0.2-0.3 1-0.1 2 0 2.9 0.1 0.1 0 0.2 0.1 0.2 0.3 0.1 0.3-0.1 0.4-0.2 0.3z"/>
					<path id="Layer" class="s7" d="m50.4 99.9c-0.9 0.2-1.8 0.4-2.7 0.8-0.1 0.1-0.3 0-0.3-0.1-0.1-0.1 0-0.3 0.1-0.3 0.9-0.4 1.8-0.6 2.8-0.8 0.1 0 0.3 0.1 0.3 0.2 0-0.1 0 0.1-0.2 0.2z"/>
					<path id="Layer" class="s7" d="m45.7 101.4c-0.8 0.4-1.7 0.8-2.5 1.4-0.1 0.1-0.2 0.1-0.3-0.1-0.1-0.1-0.1-0.2 0.1-0.3 0.8-0.5 1.6-1 2.5-1.4 0.1-0.1 0.3 0 0.3 0.1 0.1 0.1 0 0.2-0.1 0.3z"/>
					<path id="Layer" class="s7" d="m41.5 104q-1.2 0.9-2.1 1.8-0.1 0.1-0.3 0-0.1-0.2 0-0.3c0.7-0.7 1.4-1.3 2.2-1.9 0.1-0.1 0.2-0.1 0.3 0.1 0 0.1 0 0.2-0.1 0.3z"/>
					<path id="Layer" class="s7" d="m37.9 107.4c-0.6 0.7-1.2 1.5-1.8 2.3-0.1 0.1-0.2 0.1-0.3 0.1-0.1-0.1-0.1-0.2-0.1-0.3 0.6-0.8 1.1-1.6 1.8-2.3q0.2-0.1 0.3 0c0.1 0 0.2 0.1 0.1 0.2z"/>
					<path id="Layer" class="s7" d="m35.1 111.5c-0.4 0.8-0.8 1.7-1.2 2.5-0.1 0.1-0.1 0.1-0.2 0.1-0.1 0-0.1-0.1-0.1-0.2 0.4-0.9 0.8-1.8 1.2-2.6 0.1-0.1 0.1-0.1 0.3-0.1q0 0.2 0 0.3z"/>
					<path id="Layer" class="s7" d="m33.2 116.1c-0.3 0.9-0.4 1.8-0.6 2.8 0 0.1-0.1 0.1-0.2 0.1-0.1 0-0.1-0.1-0.1-0.2 0.1-1 0.3-1.9 0.6-2.8 0-0.1 0.1-0.1 0.2-0.1 0 0 0.1 0 0.1 0.2z"/>
					<path id="Layer" class="s7" d="m32.4 121c0 0.9 0 1.9 0.1 2.8 0 0.1-0.1 0.1-0.1 0.1-0.1 0-0.1-0.1-0.1-0.1-0.1-1-0.1-1.9-0.1-2.9 0-0.1 0.1-0.1 0.1-0.1 0 0 0.1 0.1 0.1 0.2z"/>
					<path id="Layer" class="s7" d="m32.9 125.9c0.1 0.9 0.4 1.8 0.6 2.8 0 0.1 0 0.1-0.1 0.1-0.1 0-0.1 0-0.1-0.1-0.3-0.9-0.5-1.8-0.7-2.8 0-0.1 0-0.1 0.1-0.1 0 0 0.1 0 0.2 0.1z"/>
					<path id="Layer" class="s7" d="m34.2 130.7c0.4 0.8 0.8 1.7 1.3 2.5 0 0.1 0 0.1 0 0.1-0.1 0-0.1 0-0.1 0-0.5-0.8-1-1.7-1.3-2.5 0-0.1 0-0.1 0.1-0.1-0.1-0.1 0-0.1 0 0z"/>
					<path id="Layer" class="s7" d="m36.7 134.9c0.6 0.7 1.3 1.4 2 2 0.1 0 0.1 0.1 0 0.1 0 0.1-0.1 0.1-0.1 0-0.8-0.6-1.5-1.3-2.1-2-0.1-0.1 0-0.1 0-0.1 0.2 0 0.2 0 0.2 0z"/>
					<path id="Layer" class="s7" d="m40.6 138.1c0.8 0.5 1.7 0.9 2.5 1.3 0.1 0 0.1 0.1 0.1 0.1 0 0.1-0.1 0.1-0.1 0.1-0.9-0.4-1.8-0.8-2.6-1.3-0.1-0.1-0.1-0.1 0.1-0.2 0-0.1-0.1 0 0 0z"/>
					<path id="Layer" class="s7" d="m45.1 140.1c0.9 0.3 1.8 0.5 2.8 0.6l0.1 0.1-0.1 0.1c-0.9-0.1-1.9-0.4-2.8-0.6-0.1 0-0.1-0.1-0.1-0.1z"/>
					<path id="Layer" class="s7" d="m50 141.1c0.9 0.1 1.9 0.2 2.8 0.2 0 0 0.1 0 0.1 0.1 0 0 0 0.1-0.1 0.1-1 0-1.9-0.1-2.8-0.2-0.1-0.1-0.1-0.2 0-0.2-0.1 0 0 0 0 0z"/>
					<path id="Layer" class="s7" d="m55 141.3c1 0 1.9-0.1 2.8-0.1-0.9 0-1.9 0.1-2.8 0.1-0.1 0.1-0.1 0 0 0q-0.2 0 0 0z"/>
					<path id="Layer" class="s7" d="m60 141l2.8-0.4-2.8 0.4c0 0.1 0 0 0 0z"/>
					<path id="Layer" class="s7" d="m65 140.2l1.3-0.4z"/>
				</g>
			</g>
			<g id="Layer">
				<path id="Layer" class="s7" d="m51.3 57.5c0.1-0.1-8.3 5-8.3 5l2.1 14 4.1-10.5 10.8-2 15.4-14.5z"/>
				<path id="Layer" class="s8" d="m75.4 49.5l-30.3 27 4.1-10.5z"/>
				<path id="Layer" class="s9" d="m75.4 49.5l-40 8.4 7.6 4.6 32.4-13-26.2 16.5 13 8z"/>
			</g>
		</g>
	</g>
	<g id="XMLID_1_">
		<path id="XMLID_14_" class="s10" d="m326 52.4c0 8-10.5 14.6-23.6 14.6-3.4 0-6.6-0.4-9.5-1.3-0.8-0.2-7.3 1.3-7.3 1.3 0 0 2.8-2.9 1.8-3.3-5.2-2.7-8.5-6.8-8.5-11.3 0-8 10.5-14.6 23.6-14.6 12.9 0 23.5 6.6 23.5 14.6z"/>
		<path id="XMLID_10_" class="s11" d="m293.6 54.7c-1.1 0-2-0.9-2-2 0-1.1 0.9-2 2-2 1.1 0 2 0.9 2 2 0 1.1-0.9 2-2 2z"/>
		<path id="XMLID_9_" class="s11" d="m302.7 54.7c-1.1 0-2-0.9-2-2 0-1.1 0.9-2 2-2 1.1 0 2 0.9 2 2 0 1.1-0.9 2-2 2z"/>
		<path id="XMLID_8_" class="s11" d="m311.8 54.7c-1.1 0-2-0.9-2-2 0-1.1 0.9-2 2-2 1.1 0 2 0.9 2 2 0 1.1-0.9 2-2 2z"/>
	</g>
	<g id="XMLID_2_">
		<path id="XMLID_15_" fill-rule="evenodd" class="s11" d="m135.5 103c0.1 0.1 0.1 0.3 0.2 0.4 0.3 0.4 0.6 0.6 0.9 0.8 0.4 0.1 0.6 0 1-0.1 0.7-0.4 1.1-1.1 1.2-2.2 0.1-1.1 0.1-2.2-0.3-3.5-0.4-1.3-0.8-2.5-1.6-3.6-0.8-1.2-1.8-2.1-2.9-2.7-1.1-0.6-2.4-0.8-3.8-0.6-1.4 0.1-2.8 0.7-4.2 1.6-2.2 1.4-4 3.1-5.2 5.2-1.3 2-1.8 4.2-1.8 6.5 0 2.3 0.8 4.6 2.2 6.8 0.8 1.3 1.9 2.4 3.2 3.2 1.3 0.8 2.7 1.2 4.3 1.2 1.6 0 3.2-0.6 4.9-1.7q1.9-1.2 3-2.4c0.6-0.8 1.3-1.7 1.9-2.8 0.1-0.2 0.3-0.4 0.4-0.5 0.4-0.2 0.8-0.1 1.2 0.1 0.1 0.1 0.2 0.1 0.3 0.3 0.2 0.4 0.1 0.9-0.3 1.7-0.7 1.2-1.4 2.3-2.1 3.1-0.7 0.8-1.7 1.7-3 2.5-2.2 1.4-4.3 2.1-6.4 2.1q-3 0-5.4-1.5c-1.6-1-2.9-2.3-4-4-1.7-2.6-2.5-5.3-2.5-8 0-2.8 0.6-5.4 2.1-7.8 1.4-2.4 3.5-4.4 6-6.1 1.9-1.2 3.7-1.9 5.6-2 1.8-0.1 3.5 0.2 4.9 1 1.5 0.8 2.7 1.9 3.7 3.5 0.9 1.5 1.6 3 1.8 4.7 0.2 1.7 0.2 3.3-0.4 4.9-0.5 1.6-1.5 2.8-2.8 3.6-0.7 0.4-1.5 0.6-2.3 0.6-0.8-0.1-1.5-0.4-2-0.8 0.1 1.9-0.7 3.5-2.5 4.6-0.6 0.4-1.4 0.6-2.2 0.7-0.8 0-1.6-0.1-2.4-0.6-0.8-0.4-1.4-1.1-2-1.9-0.7-1.1-1.1-2.4-1.3-4-0.2-1.6-0.1-3 0.4-4.4 0.4-1.4 1.2-2.5 2.3-3.1 0.6-0.4 1.2-0.6 1.9-0.6 0.7 0 1.3 0.2 1.9 0.6l-0.4-0.8c-0.1-0.3-0.1-0.6 0-1 0.1-0.4 0.4-0.6 0.8-0.9 0.9-0.6 1.6-0.5 2.1 0.2 0.1 0.1 0.2 0.3 0.2 0.4zm-4.8-2.2c-0.4-0.7-1-1.1-1.6-1.2-0.6-0.1-1.2 0.1-1.8 0.5-0.6 0.4-1.1 1.1-1.3 1.9-0.2 0.8-0.1 1.8 0.1 2.8 0.2 1 0.6 1.8 1.1 2.6 0.4 0.6 0.9 1.1 1.4 1.2 0.5 0.1 1.1 0 1.6-0.4 0.6-0.4 0.9-0.8 1.2-1.5 0.2-0.6 0.4-1.3 0.4-2 0-0.6-0.1-1.3-0.2-1.8-0.2-0.8-0.6-1.6-0.9-2.1z"/>
	</g>
	<g id="Layer">
		<g id="Layer">
			<g id="Layer">
				<path id="Layer" class="s12" d="m109.6 263.3c-1.7-2.7-3.4-5.5-3.7-8.6-0.3-2.9-0.7-6.1-0.3-9 0.4-2.9 0.2-5.9-0.4-8.7-2-9-5.8-8-7.1-7.3-1.3 0.7-2 2.1-2 4.5-0.1 1.9 1.3 10.8-1.6 9.5-3.4-1.5-3.3-10.8-3.9-13.9-0.8-4.7-2.8-9.5-6.3-12.8-1.8-1.6-4.3-2.8-6.4-1.7-1.3 0.6-2 1.9-2.5 3.2-1.3 4 0.1 8.2 1.7 11.9 0.7 1.6 6.1 8.7 1.6 8-1.1-0.1-9.9-7.1-10.8 0.1-0.3 2.5 2.5 5.1 7.1 8.3 2.8 2 13.2 7.2 12.7 10-0.5 2.8-6.3-1.6-5.6 3.6 0.4 2.9 4.2 5 6.8 6.1 1.3 0.5 2.6 0.8 3.8 1.3 1.4 0.7 3.2 2.4 2.1 4.1-0.5 0.7-1.4 1.1-1.8 1.9-0.4 0.8-0.3 1.8 0.1 2.5 0.5 0.8 1.2 1.3 2 1.8 4.9 3 11 3.4 16.6 2.3 5.6-1.1 10.7-3.7 15.7-6.6"/>
			</g>
			<g id="Layer" style="opacity: .3">
				<path id="Layer" fill-rule="evenodd" class="s13" d="m80.7 220.3c0 0 6.1 30.4 24.7 49.2"/>
				<path id="Layer" fill-rule="evenodd" class="s13" d="m72.4 240.4c0 0 10.4 8 18.9 9.1"/>
				<path id="Layer" fill-rule="evenodd" class="s13" d="m99.8 233.5c0.6 4.8 1.1 18.1-3.4 24.6"/>
				<path id="Layer" fill-rule="evenodd" class="s13" d="m86 261.7c0 0 4.1 3.5 16.7 4.8"/>
				<path id="Layer" fill-rule="evenodd" class="s13" d="m95.6 275c0 0 6.5 1.1 12.2-2.3"/>
			</g>
		</g>
		<g id="Layer">
			<path id="Layer" class="s14" d="m125.2 260.5c-0.6-3.7-7.3-26.5-19.1-20.4-7 3.6-5.7 16.9 5.2 26.9-2.1-2-4.6-4.4-7.5-5-1.6-0.3-3.5 0.4-4.7 1.5-1.1 1-1.3 2.5-1.4 4-0.1 5.2 2.5 10.4 6.9 13.3-2.4-1.3-4.5-3-7.3-3.2-0.9-0.1-2.4 0.4-2.8 1.2-0.4 0.8-0.4 4.1 4.9 6.6-21.7-4.1-22.9 5.2-15.1 5.2 7.8 0 63.8 0 63.8 0"/>
		</g>
		<g id="Layer">
			<path id="Layer" class="s14" d="m256.5 260.5c0.6-3.7 7.3-26.5 19.1-20.4 7 3.6 5.7 16.9-5.2 26.9 2.1-2 4.6-4.4 7.5-5 1.6-0.3 3.5 0.4 4.7 1.5 1.1 1 1.3 2.5 1.4 4 0.2 5.2-2.5 10.4-6.9 13.3 2.4-1.3 4.5-3 7.3-3.2 0.9-0.1 2.4 0.4 2.8 1.2 0.4 0.8 0.4 4.1-4.9 6.6 21.7-4.1 22.9 5.2 15.1 5.2-7.8 0-51.4 0-51.4 0"/>
		</g>
		<g id="Layer">
			<g id="Layer">
				<path id="Layer" class="s12" d="m251.2 244.6c1.3-2.8 2.8-5.9 2.7-9-0.1-2.9 0.1-6.1-0.7-9-0.8-2.9-0.9-5.8-0.6-8.7 1-9.1 4.8-8.5 6.3-8 1.4 0.5 2.2 1.9 2.5 4.2 0.3 1.9-0.1 10.9 2.6 9.2 3.2-1.9 2-11.1 2.3-14.3 0.3-4.7 1.7-9.8 4.9-13.4 1.6-1.8 4-3.2 6.2-2.4 1.3 0.5 2.3 1.7 2.9 3 1.8 3.9 0.8 8.2-0.4 12.1-0.5 1.6-5.1 9.4-0.7 8.2 1.1-0.3 9.1-8.1 10.7-1.1 0.6 2.5-2 5.4-6.1 9-2.5 2.3-12.3 8.7-11.5 11.4 0.8 2.8 6.1-2.3 5.9 3-0.1 3-3.7 5.4-6.1 6.8-1.2 0.6-2.5 1.1-3.6 1.8-1.3 0.8-2.9 2.8-1.6 4.3 0.6 0.7 1.5 1 2 1.6 0.6 0.7 0.5 1.8 0.1 2.5-0.4 0.7-1.1 1.4-1.8 2-4.5 3.5-10.5 4.6-16.2 4.1-5.6-0.5-11.1-2.5-16.4-4.8"/>
			</g>
			<g id="Layer" style="opacity: .3">
				<path id="Layer" fill-rule="evenodd" class="s13" d="m275.1 198.6c0 0-2.7 30.9-19.1 51.7"/>
				<path id="Layer" fill-rule="evenodd" class="s13" d="m285.6 217.6c0 0-9.5 9.1-17.8 11.1"/>
				<path id="Layer" fill-rule="evenodd" class="s13" d="m257.7 213.8c-0.1 4.8 0.9 18.1 6.1 24.1"/>
				<path id="Layer" fill-rule="evenodd" class="s13" d="m274.4 240.3c0 0-3.7 3.9-16 6.6"/>
				<path id="Layer" fill-rule="evenodd" class="s13" d="m266.5 254.6c0 0-6.4 1.8-12.4-1"/>
			</g>
		</g>
	</g>
	<g id="Layer">
		<g id="Layer">
			<g id="Layer">
				<path id="Layer" class="s15" d="m251 343.3h-135.4c-9.5 0-17.2-7.7-17.2-17.2v-305.5c0-9.5 7.7-17.2 17.2-17.2h135.4c9.5 0 17.2 7.7 17.2 17.2v305.5c0 9.6-7.8 17.2-17.2 17.2z"/>
				<path id="Layer" class="s11" d="m183.1 338.4c-5.5 0-9.9-4.4-9.9-9.9 0-5.5 4.4-9.9 9.9-9.9 5.5 0 9.9 4.4 9.9 9.9 0 5.5-4.4 9.9-9.9 9.9z"/>
				<path id="Layer" class="s16" d="m262.7 29.9v265.6c0 10.9-9.3 19.7-20.8 19.7h-117.2c-11.5 0-20.8-8.8-20.8-19.7v-265.6c0-10.9 9.3-19.8 20.8-19.8h15.3v1.6c0 6.8 5.9 12.4 13.1 12.4h60.9c7.2 0 13.1-5.6 13.1-12.4v-1.6h14.7c11.5 0 20.9 8.8 20.9 19.8z"/>
				<path id="Layer" class="s15" d="m227 7.4v4.3c0 7.2-5.9 13.1-13.1 13.1h-60.8c-7.2 0-13.1-5.9-13.1-13.1v-4.3c0 0 87 0 87 0z"/>
			</g>
		</g>
	</g>
</svg>